<svg width="70" height="91" viewBox="0 0 70 91" fill="none" xmlns="http://www.w3.org/2000/svg">
<path d="M5.46449 1.28936C4.51972 -0.0717427 2.65045 -0.40925 1.28936 0.535513C-0.0717427 1.48028 -0.40925 3.34955 0.535513 4.71064L5.46449 1.28936ZM61.467 90.9523C63.0974 91.2467 64.6579 90.1635 64.9523 88.533L69.7497 61.9627C70.0441 60.3322 68.961 58.7718 67.3305 58.4774C65.7 58.183 64.1396 59.2661 63.8452 60.8966L59.5808 84.5147L35.9627 80.2503C34.3322 79.9559 32.7718 81.039 32.4774 82.6695C32.183 84.3 33.2661 85.8604 34.8966 86.1548L61.467 90.9523ZM0.535513 4.71064L59.5355 89.7106L64.4645 86.2894L5.46449 1.28936L0.535513 4.71064Z" fill="#426DAD"/>
</svg>
