<svg width="45" height="86" viewBox="0 0 45 86" fill="none" xmlns="http://www.w3.org/2000/svg">
<path id="Arrow 4" d="M25.5409 3.02048C25.5523 1.36366 24.2183 0.0113809 22.5615 6.99162e-05C20.9047 -0.0112411 19.5524 1.3227 19.5411 2.97952L25.5409 3.02048ZM19.8643 84.3417C21.0279 85.5212 22.9273 85.5342 24.1069 84.3706L43.3286 65.4095C44.5082 64.246 44.5212 62.3465 43.3576 61.167C42.1941 59.9874 40.2946 59.9745 39.1151 61.138L22.029 77.9923L5.17473 60.9063C4.01119 59.7268 2.11174 59.7138 0.932191 60.8774C-0.247354 62.0409 -0.260321 63.9403 0.903227 65.1199L19.8643 84.3417ZM19.5411 2.97952L19.0002 82.2144L25 82.2554L25.5409 3.02048L19.5411 2.97952Z" fill="#0FD188"/>
</svg>
