<svg width="56" height="103" viewBox="0 0 56 103" fill="none" xmlns="http://www.w3.org/2000/svg">
<path id="Arrow 5" d="M54.8673 4.49856C55.4771 2.95798 54.7225 1.21481 53.1819 0.605066C51.6413 -0.0046732 49.8982 0.749922 49.2884 2.2905L54.8673 4.49856ZM11.2468 100.795C11.905 102.315 13.6712 103.014 15.1917 102.356L39.9698 91.6301C41.4903 90.9719 42.1893 89.2057 41.5311 87.6852C40.8729 86.1647 39.1067 85.4656 37.5862 86.1238L15.5613 95.6581L6.02702 73.6332C5.36881 72.1127 3.60262 71.4136 2.08212 72.0718C0.561612 72.73 -0.137423 74.4962 0.520782 76.0167L11.2468 100.795ZM49.2884 2.2905L11.2105 98.499L16.7894 100.707L54.8673 4.49856L49.2884 2.2905Z" fill="#3FCF34"/>
</svg>
