<svg width="27" height="22" viewBox="0 0 27 22" fill="none" xmlns="http://www.w3.org/2000/svg">
<g clip-path="url(#clip0_1494_8463)">
<path d="M20.4285 10.0078C20.4685 10.3337 20.4914 10.665 20.4914 11C20.4914 15.7117 16.4718 19.544 11.5322 19.544C6.59253 19.544 2.57479 15.7117 2.57479 11C2.57479 6.28832 6.59253 2.45597 11.5322 2.45597C14.1451 2.45597 16.5004 3.5283 18.14 5.23784L19.9627 3.50645C17.8537 1.35088 14.8571 0 11.5322 0C5.17249 0 0 4.9338 0 11C0 17.0662 5.17249 22 11.5322 22C17.8918 22 23.0643 17.0662 23.0643 11C23.0643 9.93678 22.9021 8.90996 22.6062 7.93595L20.4285 10.0078Z" fill="#484848"/>
<path d="M6.56907 7.94687L4 10.3956L11.1785 17.2428L26.7284 2.44869L24.1612 0L11.1785 12.3436L6.56907 7.94687Z" fill="#484848"/>
</g>
<defs>
<clipPath id="clip0_1494_8463">
<rect width="27" height="22" fill="white"/>
</clipPath>
</defs>
</svg>
