<svg width="27" height="24" viewBox="0 0 27 24" fill="none" xmlns="http://www.w3.org/2000/svg">
<g clip-path="url(#clip0_1494_8396)">
<path d="M20.4285 10.7596C20.4685 11.11 20.4914 11.4662 20.4914 11.8264C20.4914 16.892 16.4718 21.0123 11.5322 21.0123C6.59253 21.0123 2.57479 16.892 2.57479 11.8264C2.57479 6.76073 6.59253 2.64048 11.5322 2.64048C14.1451 2.64048 16.5004 3.79337 18.14 5.63133L19.9627 3.76988C17.8537 1.45236 14.8571 0 11.5322 0C5.17249 0 0 5.30445 0 11.8264C0 18.3483 5.17249 23.6528 11.5322 23.6528C17.8918 23.6528 23.0643 18.3483 23.0643 11.8264C23.0643 10.6833 22.9021 9.57933 22.6062 8.53214L20.4285 10.7596Z" fill="#2998FF"/>
<path d="M6.84055 8.84466L4.27148 11.4773L11.45 18.839L26.9999 2.93343L24.4327 0.300781L11.45 13.5717L6.84055 8.84466Z" fill="#2998FF"/>
</g>
<defs>
<clipPath id="clip0_1494_8396">
<rect width="27" height="23.6528" fill="white"/>
</clipPath>
</defs>
</svg>
