<svg width="40" height="40" viewBox="0 0 40 40" fill="none" xmlns="http://www.w3.org/2000/svg">
<g clip-path="url(#clip0_1452_7456)">
<path d="M20 40C31.0457 40 40 31.0457 40 20C40 8.9543 31.0457 0 20 0C8.9543 0 0 8.9543 0 20C0 31.0457 8.9543 40 20 40Z" fill="#F4F4F4"/>
<path d="M28.4999 15.53C28.2999 14.73 27.6899 14.1 26.9299 13.89C25.5499 13.5 19.9999 13.5 19.9999 13.5C19.9999 13.5 14.4499 13.5 13.0699 13.89C12.3099 14.1 11.7099 14.73 11.4999 15.53C11.1299 16.98 11.1299 20 11.1299 20C11.1299 20 11.1299 23.02 11.4999 24.47C11.6999 25.27 12.3099 25.9 13.0699 26.11C14.4499 26.5 19.9999 26.5 19.9999 26.5C19.9999 26.5 25.5499 26.5 26.9299 26.11C27.6899 25.9 28.2899 25.27 28.4999 24.47C28.8699 23.02 28.8699 20 28.8699 20C28.8699 20 28.8699 16.98 28.4999 15.53ZM17.6999 22.78V17.21L22.3099 20L17.6999 22.79V22.78Z" fill="#EC2123"/>
</g>
<defs>
<clipPath id="clip0_1452_7456">
<rect width="40" height="40" fill="white"/>
</clipPath>
</defs>
</svg>
