<svg width="40" height="40" viewBox="0 0 40 40" fill="none" xmlns="http://www.w3.org/2000/svg">
<g clip-path="url(#clip0_1452_7451)">
<path d="M20 40C31.0457 40 40 31.0457 40 20C40 8.9543 31.0457 0 20 0C8.9543 0 0 8.9543 0 20C0 31.0457 8.9543 40 20 40Z" fill="#F4F4F4"/>
<path d="M25.2498 13.6289C24.6098 13.6289 24.0898 14.1489 24.0898 14.7889C24.0898 15.4289 24.6098 15.9489 25.2498 15.9489C25.8898 15.9489 26.4098 15.4289 26.4098 14.7889C26.4098 14.1489 25.8898 13.6289 25.2498 13.6289Z" fill="#E03569"/>
<path d="M20.0802 15.1211C17.3902 15.1211 15.2002 17.3111 15.2002 20.0011C15.2002 22.6911 17.3902 24.8811 20.0802 24.8811C22.7702 24.8811 24.9602 22.6911 24.9602 20.0011C24.9602 17.3111 22.7702 15.1211 20.0802 15.1211ZM20.0802 23.1311C18.3602 23.1311 16.9502 21.7311 16.9502 20.0011C16.9502 18.2711 18.3502 16.8711 20.0802 16.8711C21.8102 16.8711 23.2102 18.2711 23.2102 20.0011C23.2102 21.7311 21.8102 23.1311 20.0802 23.1311Z" fill="#E03569"/>
<path d="M23.9601 10.0898H16.0401C12.7601 10.0898 10.0801 12.7598 10.0801 16.0498V23.9698C10.0801 27.2498 12.7501 29.9298 16.0401 29.9298H23.9601C27.2401 29.9298 29.9201 27.2598 29.9201 23.9698V16.0498C29.9201 12.7698 27.2501 10.0898 23.9601 10.0898ZM28.0501 23.9598C28.0501 26.2098 26.2201 28.0498 23.9601 28.0498H16.0401C13.7801 28.0498 11.9501 26.2098 11.9501 23.9598V16.0398C11.9501 13.7898 13.7801 11.9498 16.0401 11.9498H23.9601C26.2201 11.9498 28.0501 13.7898 28.0501 16.0398V23.9598Z" fill="#E03569"/>
</g>
<defs>
<clipPath id="clip0_1452_7451">
<rect width="40" height="40" fill="white"/>
</clipPath>
</defs>
</svg>
