<svg width="40" height="40" viewBox="0 0 40 40" fill="none" xmlns="http://www.w3.org/2000/svg">
<g clip-path="url(#clip0_1452_7442)">
<path d="M20 40C31.0457 40 40 31.0457 40 20C40 8.9543 31.0457 0 20 0C8.9543 0 0 8.9543 0 20C0 31.0457 8.9543 40 20 40Z" fill="#F4F4F4"/>
<path d="M24.53 21.0711L25.07 17.5511H21.69V15.2611C21.69 14.3011 22.16 13.3611 23.68 13.3611H25.22V10.3611C25.22 10.3611 23.83 10.1211 22.49 10.1211C19.71 10.1211 17.89 11.8111 17.89 14.8611V17.5511H14.79V21.0711H17.89V29.8911H21.7V21.0711H24.54H24.53Z" fill="#3C72D5"/>
</g>
<defs>
<clipPath id="clip0_1452_7442">
<rect width="40" height="40" fill="white"/>
</clipPath>
</defs>
</svg>
