<svg width="40" height="40" viewBox="0 0 40 40" fill="none" xmlns="http://www.w3.org/2000/svg">
<g clip-path="url(#clip0_1452_7445)">
<path d="M20 40C31.0457 40 40 31.0457 40 20C40 8.9543 31.0457 0 20 0C8.9543 0 0 8.9543 0 20C0 31.0457 8.9543 40 20 40Z" fill="#F4F4F4"/>
<path d="M11.0396 16.8114C11.0396 16.8114 10.1596 16.8114 9.35965 17.6014V14.4414H7.38965V22.7314H9.37965V22.0814C9.37965 22.0814 9.84965 22.9414 11.0396 22.9414C11.0396 22.9414 13.8196 22.8314 13.8196 19.8414C13.8196 19.8414 13.7196 16.8114 11.0396 16.8114ZM10.5996 21.1814C9.89965 21.1814 9.32965 20.6114 9.32965 19.9014C9.32965 19.1914 9.89965 18.6214 10.5996 18.6214C11.2996 18.6214 11.8696 19.1914 11.8696 19.9014C11.8696 20.6114 11.2996 21.1814 10.5996 21.1814Z" fill="#2FB14A"/>
<path d="M14.46 14.2483V16.1683C14.46 16.1683 15.36 16.1283 15.36 17.8183V22.7183H17.26V17.3583C17.26 17.3583 17.34 14.2383 14.46 14.2383" fill="#2FB14A"/>
<path d="M21.9097 16.8398C21.9097 16.8398 18.6497 16.8398 18.6497 19.9098C18.6497 19.9098 18.5497 22.9398 21.9097 22.9398C21.9097 22.9398 25.2497 22.9398 25.2497 19.9098C25.2497 19.9098 25.3597 16.8398 21.9097 16.8398ZM21.9097 21.1798C21.2097 21.1798 20.6397 20.6098 20.6397 19.8998C20.6397 19.1898 21.1997 18.6198 21.9097 18.6198C22.6197 18.6198 23.1797 19.1898 23.1797 19.8998C23.1797 20.6098 22.6097 21.1798 21.9097 21.1798Z" fill="#2FB14A"/>
<path d="M30.6902 17.0287V17.5887C30.6902 17.5887 30.1202 16.8287 29.0302 16.8287C29.0302 16.8287 26.2402 16.7087 26.2402 19.8787C26.2402 19.8787 26.2102 22.8287 28.9502 22.8287C28.9502 22.8287 30.0702 22.8687 30.6802 22.0687V22.5287C30.6802 22.5287 30.8202 23.9787 29.4202 23.9787H28.9402V25.7387H29.7102C29.7102 25.7387 32.5902 25.7687 32.5902 22.6287V17.0087H30.6702L30.6902 17.0287ZM29.5102 21.1787C28.8102 21.1787 28.2402 20.6087 28.2402 19.8987C28.2402 19.1887 28.8102 18.6187 29.5102 18.6187C30.2102 18.6187 30.7802 19.1887 30.7802 19.8987C30.7802 20.6087 30.2102 21.1787 29.5102 21.1787Z" fill="#2FB14A"/>
</g>
<defs>
<clipPath id="clip0_1452_7445">
<rect width="40" height="40" fill="white"/>
</clipPath>
</defs>
</svg>
