<svg width="40" height="40" viewBox="0 0 40 40" fill="none" xmlns="http://www.w3.org/2000/svg">
<g clip-path="url(#clip0_1452_13656)">
<path d="M17.7002 22.7909L22.3002 20.0009L17.7002 17.2109V22.7909Z" fill="#D9D9D9"/>
<path d="M20 0C8.95 0 0 8.95 0 20C0 31.05 8.95 40 20 40C31.05 40 40 31.05 40 20C40 8.95 31.05 0 20 0ZM28.5 24.47C28.3 25.27 27.69 25.9 26.93 26.11C25.55 26.5 20 26.5 20 26.5C20 26.5 14.45 26.5 13.07 26.11C12.31 25.9 11.71 25.27 11.5 24.47C11.13 23.02 11.13 20 11.13 20C11.13 20 11.13 16.98 11.5 15.53C11.7 14.73 12.31 14.1 13.07 13.89C14.45 13.5 20 13.5 20 13.5C20 13.5 25.55 13.5 26.93 13.89C27.69 14.1 28.29 14.73 28.5 15.53C28.87 16.98 28.87 20 28.87 20C28.87 20 28.87 23.02 28.5 24.47Z" fill="#D9D9D9"/>
</g>
<defs>
<clipPath id="clip0_1452_13656">
<rect width="40" height="40" fill="white"/>
</clipPath>
</defs>
</svg>
