<svg width="40" height="40" viewBox="0 0 40 40" fill="none" xmlns="http://www.w3.org/2000/svg">
<g clip-path="url(#clip0_1452_13659)">
<path d="M16.7897 16.4489C17.7497 16.4489 18.5797 17.0289 18.7897 17.9489H20.1697C19.8497 16.2489 18.5397 15.1289 16.7897 15.1289C14.7797 15.1289 13.1797 16.6289 13.1797 18.7189C13.1797 20.8089 14.7797 22.3089 16.7897 22.3089C18.5197 22.3089 19.8197 21.2189 20.1597 19.5389H18.7697C18.5297 20.4089 17.7297 20.9689 16.7897 20.9689C15.5597 20.9689 14.5397 20.0189 14.5397 18.7189C14.5397 17.4189 15.4397 16.4489 16.7897 16.4489Z" fill="#D9D9D9"/>
<path d="M24.0701 17.0984C23.4001 17.0984 22.9101 17.3284 22.6001 17.7884V15.1484H21.3301V22.1684H22.6001V19.5084C22.6001 18.6884 23.0201 18.2884 23.6801 18.2884C24.2701 18.2884 24.6601 18.6484 24.6601 19.3084V22.1784H25.9301V19.1484C25.9301 18.5084 25.7501 18.0184 25.4001 17.6484C25.0601 17.2784 24.6101 17.1084 24.0701 17.1084V17.0984Z" fill="#D9D9D9"/>
<path d="M20 0C8.95 0 0 8.95 0 20C0 31.05 8.95 40 20 40C31.05 40 40 31.05 40 20C40 8.95 31.05 0 20 0ZM20 27.59C19.36 27.59 18.73 27.53 18.12 27.42L18.04 27.39L14.41 30.09C14.25 30.21 14.02 30.09 14.02 29.89V25.65C11.95 24.07 10.43 22.35 10.43 18.73C10.43 13.84 14.72 9.87 20.01 9.87C25.3 9.87 29.59 13.84 29.59 18.73C29.59 23.62 25.3 27.59 20.01 27.59H20Z" fill="#D9D9D9"/>
</g>
<defs>
<clipPath id="clip0_1452_13659">
<rect width="40" height="40" fill="white"/>
</clipPath>
</defs>
</svg>
