<svg width="40" height="40" viewBox="0 0 40 40" fill="none" xmlns="http://www.w3.org/2000/svg">
<g clip-path="url(#clip0_1452_13645)">
<path d="M20 0C8.95 0 0 8.95 0 20C0 31.05 8.95 40 20 40C31.05 40 40 31.05 40 20C40 8.95 31.05 0 20 0ZM25.21 13.35H23.67C22.16 13.35 21.68 14.29 21.68 15.25V17.54H25.06L24.52 21.06H21.68V29.88H17.87V21.06H14.77V17.54H17.87V14.85C17.87 11.79 19.69 10.11 22.47 10.11C23.8 10.11 25.2 10.35 25.2 10.35V13.35H25.21Z" fill="#D9D9D9"/>
</g>
<defs>
<clipPath id="clip0_1452_13645">
<rect width="40" height="40" fill="white"/>
</clipPath>
</defs>
</svg>
