<svg width="40" height="40" viewBox="0 0 40 40" fill="none" xmlns="http://www.w3.org/2000/svg">
<g clip-path="url(#clip0_1452_13647)">
<path d="M29.5102 18.6289C28.8102 18.6289 28.2402 19.1989 28.2402 19.9089C28.2402 20.6189 28.8102 21.1889 29.5102 21.1889C30.2102 21.1889 30.7802 20.6189 30.7802 19.9089C30.7802 19.1989 30.2102 18.6289 29.5102 18.6289Z" fill="#D9D9D9"/>
<path d="M21.9096 18.6289C21.2096 18.6289 20.6396 19.1989 20.6396 19.9089C20.6396 20.6189 21.1996 21.1889 21.9096 21.1889C22.6196 21.1889 23.1796 20.6189 23.1796 19.9089C23.1796 19.1989 22.6096 18.6289 21.9096 18.6289Z" fill="#D9D9D9"/>
<path d="M10.6098 18.6289C9.90984 18.6289 9.33984 19.1989 9.33984 19.9089C9.33984 20.6189 9.90984 21.1889 10.6098 21.1889C11.3098 21.1889 11.8798 20.6189 11.8798 19.9089C11.8798 19.1989 11.3098 18.6289 10.6098 18.6289Z" fill="#D9D9D9"/>
<path d="M20 0C8.95 0 0 8.95 0 20C0 31.05 8.95 40 20 40C31.05 40 40 31.05 40 20C40 8.95 31.05 0 20 0ZM11.04 22.93C9.85 22.93 9.38 22.07 9.38 22.07V22.72H7.39V14.43H9.36V17.59C10.16 16.8 11.04 16.8 11.04 16.8C13.72 16.8 13.82 19.83 13.82 19.83C13.82 22.82 11.04 22.93 11.04 22.93ZM17.26 17.36V22.72H15.36V17.82C15.36 16.13 14.46 16.17 14.46 16.17V14.25C17.34 14.25 17.26 17.37 17.26 17.37V17.36ZM25.25 19.9C25.25 22.92 21.91 22.93 21.91 22.93C18.54 22.93 18.65 19.9 18.65 19.9C18.65 16.83 21.91 16.83 21.91 16.83C25.36 16.83 25.25 19.9 25.25 19.9ZM32.61 22.65C32.61 25.79 29.73 25.76 29.73 25.76H28.96V24H29.44C30.84 24 30.7 22.55 30.7 22.55V22.09C30.09 22.89 28.97 22.85 28.97 22.85C26.23 22.85 26.26 19.9 26.26 19.9C26.26 16.73 29.05 16.85 29.05 16.85C30.14 16.85 30.71 17.61 30.71 17.61V17.05H32.63V22.67L32.61 22.65Z" fill="#D9D9D9"/>
</g>
<defs>
<clipPath id="clip0_1452_13647">
<rect width="40" height="40" fill="white"/>
</clipPath>
</defs>
</svg>
