<svg width="40" height="40" viewBox="0 0 40 40" fill="none" xmlns="http://www.w3.org/2000/svg">
<g clip-path="url(#clip0_1452_13652)">
<path d="M23.9602 11.9492H16.0402C13.7802 11.9492 11.9502 13.7892 11.9502 16.0392V23.9592C11.9502 26.2092 13.7802 28.0492 16.0402 28.0492H23.9602C26.2202 28.0492 28.0502 26.2092 28.0502 23.9592V16.0392C28.0502 13.7892 26.2202 11.9492 23.9602 11.9492ZM20.0802 24.8792C17.3902 24.8792 15.2002 22.6892 15.2002 19.9992C15.2002 17.3092 17.3902 15.1192 20.0802 15.1192C22.7702 15.1192 24.9602 17.3092 24.9602 19.9992C24.9602 22.6892 22.7702 24.8792 20.0802 24.8792ZM25.2502 15.9492C24.6102 15.9492 24.0902 15.4292 24.0902 14.7892C24.0902 14.1492 24.6102 13.6292 25.2502 13.6292C25.8902 13.6292 26.4102 14.1492 26.4102 14.7892C26.4102 15.4292 25.8902 15.9492 25.2502 15.9492Z" fill="#D9D9D9"/>
<path d="M20.0802 16.8711C18.3602 16.8711 16.9502 18.2711 16.9502 20.0011C16.9502 21.7311 18.3502 23.1311 20.0802 23.1311C21.8102 23.1311 23.2102 21.7311 23.2102 20.0011C23.2102 18.2711 21.8102 16.8711 20.0802 16.8711Z" fill="#D9D9D9"/>
<path d="M20 0C8.95 0 0 8.95 0 20C0 31.05 8.95 40 20 40C31.05 40 40 31.05 40 20C40 8.95 31.05 0 20 0ZM29.91 23.96C29.91 27.24 27.24 29.92 23.95 29.92H16.03C12.75 29.92 10.07 27.25 10.07 23.96V16.04C10.07 12.76 12.74 10.08 16.03 10.08H23.95C27.23 10.08 29.91 12.75 29.91 16.04V23.96Z" fill="#D9D9D9"/>
</g>
<defs>
<clipPath id="clip0_1452_13652">
<rect width="40" height="40" fill="white"/>
</clipPath>
</defs>
</svg>
